<svg width="58" height="471" viewBox="0 0 58 471" fill="none" xmlns="http://www.w3.org/2000/svg">
<rect y="0.5" width="58" height="470" rx="20" fill="#C4F120"/>
<path opacity="0.7" d="M23.8936 30.5L27.667 20.6562H30.3535L34.1133 30.5H31.8438L29 22.1875L26.1631 30.5H23.8936ZM26.3613 27.8066V26.1182H31.625V27.8066H26.3613Z" fill="#5E5E5E"/>
<path opacity="0.7" d="M25.2129 59.5V49.6562H29.5742C30.6953 49.6562 31.5407 49.8613 32.1104 50.2715C32.68 50.6771 32.9648 51.2695 32.9648 52.0488C32.9648 52.5501 32.8623 52.9535 32.6572 53.2588C32.4521 53.5641 32.1947 53.7943 31.8848 53.9492C31.5749 54.0996 31.2627 54.1976 30.9482 54.2432L30.9688 54.2158C31.6797 54.3298 32.2425 54.6009 32.6572 55.0293C33.0765 55.4531 33.2861 56.041 33.2861 56.793C33.2861 57.472 33.1243 58.0098 32.8008 58.4062C32.4818 58.8027 32.0579 59.0853 31.5293 59.2539C31.0007 59.418 30.4242 59.5 29.7998 59.5H25.2129ZM27.3252 57.8594H29.4307C29.8864 57.8594 30.2373 57.7956 30.4834 57.668C30.734 57.5358 30.9072 57.3649 31.0029 57.1553C31.1032 56.9411 31.1533 56.7087 31.1533 56.458C31.1533 56.1663 31.0872 55.9157 30.9551 55.7061C30.8275 55.4919 30.6224 55.3255 30.3398 55.207C30.0618 55.0885 29.6927 55.0293 29.2324 55.0293H27.3252V57.8594ZM27.3252 53.4775H29.417C29.859 53.4775 30.2077 53.3932 30.4629 53.2246C30.7181 53.0514 30.8457 52.7712 30.8457 52.3838C30.8457 52.0602 30.7432 51.7982 30.5381 51.5977C30.333 51.3971 29.9707 51.2969 29.4512 51.2969H27.3252V53.4775Z" fill="#5E5E5E"/>
<path d="M29.457 99.8047C27.7773 99.8047 26.3164 99.4414 25.0742 98.7148C23.8398 97.9883 22.8828 96.9688 22.2031 95.6562C21.5312 94.3359 21.1953 92.793 21.1953 91.0273C21.1953 89.2852 21.5273 87.7617 22.1914 86.457C22.8555 85.1523 23.8047 84.1367 25.0391 83.4102C26.2734 82.6836 27.7422 82.3203 29.4453 82.3203C31.3594 82.3203 32.9844 82.8008 34.3203 83.7617C35.6641 84.7148 36.5469 86.0977 36.9688 87.9102L33.2891 88.7656C33.0547 87.6328 32.5977 86.7852 31.918 86.2227C31.2461 85.6602 30.418 85.3789 29.4336 85.3789C28.4883 85.3789 27.6836 85.6133 27.0195 86.082C26.3633 86.5508 25.8594 87.2109 25.5078 88.0625C25.1641 88.9062 24.9922 89.9062 24.9922 91.0625C24.9922 92.2188 25.168 93.2266 25.5195 94.0859C25.8711 94.9375 26.375 95.5977 27.0312 96.0664C27.6875 96.5273 28.4727 96.7578 29.3867 96.7578C30.3711 96.7578 31.1992 96.4766 31.8711 95.9141C32.543 95.3516 33 94.5586 33.2422 93.5352L37.0039 94.2969C36.5508 96.0625 35.6562 97.4219 34.3203 98.375C32.9844 99.3281 31.3633 99.8047 29.457 99.8047Z" fill="#111111"/>
<path opacity="0.7" d="M24.8164 132.5V122.656H28.5693C29.7497 122.656 30.7135 122.85 31.4609 123.237C32.2129 123.62 32.7666 124.176 33.1221 124.905C33.4821 125.634 33.6621 126.516 33.6621 127.551C33.6621 128.64 33.4684 129.551 33.0811 130.285C32.6982 131.019 32.1263 131.573 31.3652 131.946C30.6042 132.315 29.6608 132.5 28.5352 132.5H24.8164ZM26.9287 130.716H28.3096C30.4014 130.716 31.4473 129.67 31.4473 127.578C31.4473 126.917 31.3356 126.354 31.1123 125.89C30.8936 125.42 30.5563 125.062 30.1006 124.816C29.6449 124.566 29.0615 124.44 28.3506 124.44H26.9287V130.716Z" fill="#5E5E5E"/>
<path opacity="0.7" d="M25.7324 161.5V151.656H32.6777V153.44H27.8447V155.471H31.9463V157.18H27.8447V159.716H32.7734V161.5H25.7324Z" fill="#5E5E5E"/>
<path opacity="0.7" d="M25.876 190.5V180.656H32.7461V182.44H27.9883V184.56H32.1582V186.344H27.9883V190.5H25.876Z" fill="#5E5E5E"/>
<path opacity="0.7" d="M29.3486 219.678C28.2594 219.678 27.3434 219.466 26.6006 219.042C25.8623 218.618 25.304 218.028 24.9258 217.271C24.5475 216.51 24.3584 215.626 24.3584 214.619C24.3584 213.607 24.5475 212.714 24.9258 211.939C25.304 211.165 25.8509 210.561 26.5664 210.128C27.2819 209.695 28.1478 209.479 29.1641 209.479C29.8522 209.479 30.488 209.588 31.0713 209.807C31.6546 210.021 32.1559 210.349 32.5752 210.791C32.9945 211.233 33.2998 211.796 33.4912 212.479L31.3379 212.999C31.1966 212.402 30.9368 211.965 30.5586 211.687C30.1803 211.404 29.7223 211.263 29.1846 211.263C28.624 211.263 28.1501 211.402 27.7627 211.68C27.3753 211.953 27.0814 212.343 26.8809 212.849C26.6803 213.354 26.5801 213.958 26.5801 214.66C26.5801 215.271 26.6667 215.822 26.8398 216.314C27.013 216.802 27.3001 217.187 27.7012 217.47C28.1068 217.752 28.6491 217.894 29.3281 217.894C29.6882 217.894 30.0641 217.841 30.4561 217.736C30.848 217.627 31.1875 217.417 31.4746 217.107V215.31L32.2539 215.836H28.6377V214.127H33.4844V217.996C33.0788 218.475 32.6253 218.835 32.124 219.076C31.6273 219.318 31.1351 219.477 30.6475 219.555C30.1598 219.637 29.7269 219.678 29.3486 219.678Z" fill="#5E5E5E"/>
<path opacity="0.7" d="M24.7002 248.5V238.656H26.8125V242.669H31.1875V238.656H33.2998V248.5H31.1875V244.453H26.8125V248.5H24.7002Z" fill="#5E5E5E"/>
<path opacity="0.7" d="M26.5801 277.5V275.757H27.9404V269.399H26.5801V267.656H31.4131V269.399H30.0527V275.757H31.4131V277.5H26.5801Z" fill="#5E5E5E"/>
<path opacity="0.7" d="M28.8564 306.678C28.1546 306.678 27.5531 306.573 27.0518 306.363C26.5505 306.154 26.1403 305.83 25.8213 305.393C25.5023 304.951 25.263 304.388 25.1035 303.704L27.2158 303.253C27.3115 303.818 27.4733 304.244 27.7012 304.531C27.929 304.814 28.2936 304.955 28.7949 304.955C29.2734 304.955 29.6221 304.825 29.8408 304.565C30.0596 304.306 30.1689 303.921 30.1689 303.41V298.44H26.2725V296.656H32.2812V303.41C32.2812 304.057 32.1833 304.593 31.9873 305.017C31.7959 305.44 31.5361 305.775 31.208 306.021C30.8799 306.263 30.513 306.432 30.1074 306.527C29.7018 306.628 29.2848 306.678 28.8564 306.678Z" fill="#5E5E5E"/>
<path opacity="0.7" d="M24.8848 335.5V325.656H26.9971V329.683L31.0439 325.656H33.6484L30.0049 329.272L33.9082 335.5H31.4746L28.5488 330.715L26.9971 332.26V335.5H24.8848Z" fill="#5E5E5E"/>
<path opacity="0.7" d="M25.917 364.5V354.656H28.0293V362.716H32.7734V364.5H25.917Z" fill="#5E5E5E"/>
<path opacity="0.7" d="M23.1484 393.5L23.6953 383.656H27.127L29.1162 392.078H28.8701L30.873 383.656H34.3047L34.8516 393.5H32.7939L32.3564 385.16H32.377L30.292 393.5H27.708L25.623 385.16H25.6436L25.2061 393.5H23.1484Z" fill="#5E5E5E"/>
<path opacity="0.7" d="M24.5977 422.5V412.656H27.626L32.0352 421.454L31.3789 421.495V412.656H33.3955V422.5H30.4424L25.9238 413.654L26.6143 413.606V422.5H24.5977Z" fill="#5E5E5E"/>
<path opacity="0.7" d="M28.9932 451.678C27.986 451.678 27.1156 451.473 26.3818 451.062C25.6481 450.648 25.083 450.06 24.6865 449.299C24.29 448.533 24.0918 447.626 24.0918 446.578C24.0918 445.525 24.29 444.618 24.6865 443.857C25.083 443.096 25.6481 442.511 26.3818 442.101C27.1156 441.686 27.9883 441.479 29 441.479C30.0072 441.479 30.8776 441.686 31.6113 442.101C32.3451 442.511 32.9102 443.096 33.3066 443.857C33.7031 444.618 33.9014 445.525 33.9014 446.578C33.9014 447.626 33.7031 448.533 33.3066 449.299C32.9102 450.06 32.3451 450.648 31.6113 451.062C30.8776 451.473 30.0049 451.678 28.9932 451.678ZM28.9932 449.894C29.5583 449.894 30.0413 449.761 30.4424 449.497C30.8434 449.233 31.151 448.854 31.3652 448.362C31.5794 447.866 31.6865 447.271 31.6865 446.578C31.6865 445.881 31.5794 445.286 31.3652 444.794C31.151 444.302 30.8434 443.924 30.4424 443.659C30.0413 443.395 29.5583 443.263 28.9932 443.263C28.4326 443.263 27.9518 443.395 27.5508 443.659C27.1497 443.924 26.8421 444.302 26.6279 444.794C26.4137 445.286 26.3066 445.881 26.3066 446.578C26.3066 447.271 26.4137 447.866 26.6279 448.362C26.8421 448.854 27.1497 449.233 27.5508 449.497C27.9518 449.761 28.4326 449.894 28.9932 449.894Z" fill="#5E5E5E"/>
</svg>
