<svg width="29" height="32" viewBox="0 0 29 32" fill="none" xmlns="http://www.w3.org/2000/svg">
<g clip-path="url(#clip0_3110_843)">
<path d="M14.7084 31.8911C14.6411 31.9353 14.5624 31.9589 14.4819 31.9589C14.4013 31.9589 14.3226 31.9353 14.2553 31.8911L6.40261 26.7507C6.34559 26.7125 6.29885 26.6608 6.26654 26.6004C6.23421 26.5398 6.21731 26.4722 6.21731 26.4034C6.21731 26.3347 6.23421 26.2672 6.26654 26.2067C6.29885 26.1461 6.34559 26.0943 6.40261 26.0562L28.3226 11.7016C28.3853 11.6615 28.4576 11.6388 28.5319 11.6356C28.6062 11.6324 28.6803 11.6489 28.7463 11.6834C28.8135 11.718 28.8702 11.7703 28.9101 11.8347C28.9499 11.899 28.9717 11.9731 28.9728 12.0488V22.3319C28.9728 22.4009 28.9558 22.4689 28.923 22.5296C28.8901 22.5902 28.8425 22.6416 28.7848 22.6792L14.7084 31.8911ZM2.77761 24.3768C2.84529 24.4201 2.9239 24.443 3.00417 24.443C3.08444 24.443 3.16304 24.4201 3.23074 24.3768L28.7757 7.64826C28.8335 7.61072 28.8811 7.55927 28.9139 7.49863C28.9468 7.43797 28.9637 7.37002 28.9637 7.30103V0.601437C28.9637 0.491289 28.92 0.385664 28.8423 0.307777C28.7646 0.229888 28.659 0.186128 28.5491 0.186128H23.0777C22.997 0.185904 22.9182 0.209579 22.8511 0.254196L0.194813 15.0945C0.137151 15.1322 0.0898028 15.1836 0.0569725 15.2443C0.0241423 15.3049 0.00684651 15.3728 0.00674821 15.4417V22.3319C0.00664177 22.4009 0.023792 22.4689 0.0566406 22.5296C0.0894892 22.5902 0.137007 22.6416 0.194813 22.6792L2.77761 24.3768ZM0 10.6939C0.000106501 10.7687 0.0203626 10.8421 0.0586319 10.9063C0.0969012 10.9705 0.151716 11.0231 0.217381 11.0587C0.283045 11.0943 0.357081 11.1114 0.431663 11.1083C0.506247 11.1052 0.578675 11.082 0.64119 11.0411L16.0474 0.948678C16.122 0.899675 16.1787 0.827893 16.2093 0.744003C16.2399 0.660111 16.2427 0.568584 16.2173 0.482976C16.1918 0.397368 16.1395 0.322243 16.0681 0.268769C15.9967 0.215296 15.91 0.186323 15.8209 0.186128H0.414627C0.304665 0.186128 0.199111 0.229888 0.121357 0.307777C0.0436026 0.385664 0 0.491289 0 0.601437V10.6939Z" fill="#C4F120"/>
</g>
<defs>
<clipPath id="clip0_3110_843">
<rect width="29" height="32" fill="white"/>
</clipPath>
</defs>
</svg>
